<?xml version="1.0" encoding="UTF-8" standalone="no"?>
<!-- Created with Inkscape (http://www.inkscape.org/) -->

<svg
   xmlns:dc="http://purl.org/dc/elements/1.1/"
   xmlns:cc="http://creativecommons.org/ns#"
   xmlns:rdf="http://www.w3.org/1999/02/22-rdf-syntax-ns#"
   xmlns:svg="http://www.w3.org/2000/svg"
   xmlns="http://www.w3.org/2000/svg"
   xmlns:xlink="http://www.w3.org/1999/xlink"
   xmlns:sodipodi="http://sodipodi.sourceforge.net/DTD/sodipodi-0.dtd"
   xmlns:inkscape="http://www.inkscape.org/namespaces/inkscape"
   width="48"
   height="48"
   id="svg2170"
   sodipodi:version="0.32"
   inkscape:version="0.46+devel r21271"
   sodipodi:docname="sansa fuze v2.svg"
   inkscape:output_extension="org.inkscape.output.svg.inkscape"
   version="1.0"
   inkscape:export-filename="C:\Users\Rodrigo\Desktop\sanas fuze v2.png"
   inkscape:export-xdpi="90"
   inkscape:export-ydpi="90">
  <defs
     id="defs2172">
    <inkscape:perspective
       sodipodi:type="inkscape:persp3d"
       inkscape:vp_x="0 : 24 : 1"
       inkscape:vp_y="0 : 1000 : 0"
       inkscape:vp_z="48 : 24 : 1"
       inkscape:persp3d-origin="24 : 16 : 1"
       id="perspective1174" />
    <linearGradient
       id="linearGradient10720">
      <stop
         style="stop-color:#ffffff;stop-opacity:1;"
         offset="0"
         id="stop10722" />
      <stop
         style="stop-color:#5e6259;stop-opacity:1;"
         offset="1"
         id="stop10724" />
    </linearGradient>
    <linearGradient
       inkscape:collect="always"
       id="linearGradient10704">
      <stop
         style="stop-color:#ffffff;stop-opacity:1;"
         offset="0"
         id="stop10706" />
      <stop
         style="stop-color:#ffffff;stop-opacity:0;"
         offset="1"
         id="stop10708" />
    </linearGradient>
    <linearGradient
       id="linearGradient9282">
      <stop
         style="stop-color:#2e3436;stop-opacity:1;"
         offset="0"
         id="stop9284" />
      <stop
         style="stop-color:#000000;stop-opacity:1;"
         offset="1"
         id="stop9286" />
    </linearGradient>
    <linearGradient
       id="linearGradient5710">
      <stop
         style="stop-color:#888a85;stop-opacity:1;"
         offset="0"
         id="stop5712" />
      <stop
         style="stop-color:#888a85;stop-opacity:0;"
         offset="1"
         id="stop5714" />
    </linearGradient>
    <linearGradient
       inkscape:collect="always"
       id="linearGradient3224">
      <stop
         style="stop-color:#eeeeec;stop-opacity:1;"
         offset="0"
         id="stop3226" />
      <stop
         style="stop-color:#eeeeec;stop-opacity:0;"
         offset="1"
         id="stop3228" />
    </linearGradient>
    <linearGradient
       id="linearGradient8644">
      <stop
         id="stop8646"
         offset="0"
         style="stop-color:#ffffff;stop-opacity:1;" />
      <stop
         id="stop8648"
         offset="1"
         style="stop-color:#878787;stop-opacity:1;" />
    </linearGradient>
    <linearGradient
       id="linearGradient5048">
      <stop
         id="stop5050"
         offset="0"
         style="stop-color:black;stop-opacity:0;" />
      <stop
         style="stop-color:black;stop-opacity:1;"
         offset="0.5"
         id="stop5056" />
      <stop
         id="stop5052"
         offset="1"
         style="stop-color:black;stop-opacity:0;" />
    </linearGradient>
    <linearGradient
       id="linearGradient5060"
       inkscape:collect="always">
      <stop
         id="stop5062"
         offset="0"
         style="stop-color:black;stop-opacity:1;" />
      <stop
         id="stop5064"
         offset="1"
         style="stop-color:black;stop-opacity:0;" />
    </linearGradient>
    <linearGradient
       id="linearGradient3624">
      <stop
         id="stop3626"
         offset="0"
         style="stop-color:#ffffff;stop-opacity:1;" />
      <stop
         id="stop3628"
         offset="1"
         style="stop-color:#7a7a7a;stop-opacity:1;" />
    </linearGradient>
    <linearGradient
       id="linearGradient4947">
      <stop
         id="stop4949"
         offset="0"
         style="stop-color:#5c5c5c;stop-opacity:1;" />
      <stop
         id="stop4951"
         offset="1"
         style="stop-color:#ababab;stop-opacity:1;" />
    </linearGradient>
    <linearGradient
       id="linearGradient5047"
       inkscape:collect="always">
      <stop
         id="stop5049"
         offset="0"
         style="stop-color:#000000;stop-opacity:1;" />
      <stop
         id="stop5051"
         offset="1"
         style="stop-color:#000000;stop-opacity:0;" />
    </linearGradient>
    <linearGradient
       id="linearGradient10350"
       inkscape:collect="always">
      <stop
         id="stop10352"
         offset="0"
         style="stop-color:#ffffff;stop-opacity:1;" />
      <stop
         id="stop10354"
         offset="1"
         style="stop-color:#ffffff;stop-opacity:0;" />
    </linearGradient>
    <linearGradient
       id="linearGradient10393">
      <stop
         id="stop10395"
         offset="0"
         style="stop-color:#b0b0b0;stop-opacity:1;" />
      <stop
         id="stop10397"
         offset="1"
         style="stop-color:#5b5b5b;stop-opacity:1;" />
    </linearGradient>
    <linearGradient
       inkscape:collect="always"
       xlink:href="#linearGradient3624"
       id="linearGradient8012"
       gradientUnits="userSpaceOnUse"
       x1="24.5"
       y1="24.941668"
       x2="24.500000"
       y2="28.133331"
       gradientTransform="translate(96.014388,0)" />
    <radialGradient
       inkscape:collect="always"
       xlink:href="#linearGradient5047"
       id="radialGradient8269"
       gradientUnits="userSpaceOnUse"
       gradientTransform="matrix(1,0,0,0.30131,0,30.63319)"
       cx="37.53125"
       cy="43.84375"
       fx="37.53125"
       fy="43.84375"
       r="7.15625" />
    <linearGradient
       inkscape:collect="always"
       xlink:href="#linearGradient3224"
       id="linearGradient10760"
       gradientUnits="userSpaceOnUse"
       gradientTransform="matrix(1.1764707,0,0,1.0802974,-62.235296,-0.99737679)"
       x1="69.506073"
       y1="13.698171"
       x2="79.408714"
       y2="39.208645" />
    <linearGradient
       inkscape:collect="always"
       xlink:href="#linearGradient8644"
       id="linearGradient10771"
       gradientUnits="userSpaceOnUse"
       gradientTransform="matrix(1.0020771,0,0,1.1608713,-35.126702,-2.4410782)"
       x1="59.562515"
       y1="12.775"
       x2="70.000015"
       y2="26.200001" />
    <linearGradient
       inkscape:collect="always"
       xlink:href="#linearGradient5710"
       id="linearGradient10774"
       gradientUnits="userSpaceOnUse"
       gradientTransform="matrix(1.000629,0,0,0.9731423,-5.0195003,1.2017743)"
       x1="27.749992"
       y1="15.25"
       x2="50.624996"
       y2="61.625" />
    <linearGradient
       inkscape:collect="always"
       xlink:href="#linearGradient5048"
       id="linearGradient10778"
       gradientUnits="userSpaceOnUse"
       gradientTransform="matrix(2.774389,0,0,1.969706,-1892.179,-872.8854)"
       x1="302.85715"
       y1="366.64789"
       x2="302.85715"
       y2="609.50507" />
    <radialGradient
       inkscape:collect="always"
       xlink:href="#linearGradient5060"
       id="radialGradient10780"
       gradientUnits="userSpaceOnUse"
       gradientTransform="matrix(2.774389,0,0,1.969706,-1891.633,-872.8854)"
       cx="605.71429"
       cy="486.64789"
       fx="605.71429"
       fy="486.64789"
       r="117.14286" />
    <radialGradient
       inkscape:collect="always"
       xlink:href="#linearGradient5060"
       id="radialGradient10782"
       gradientUnits="userSpaceOnUse"
       gradientTransform="matrix(-2.774389,0,0,1.969706,112.7623,-872.8854)"
       cx="605.71429"
       cy="486.64789"
       fx="605.71429"
       fy="486.64789"
       r="117.14286" />
    <radialGradient
       inkscape:collect="always"
       xlink:href="#linearGradient5047"
       id="radialGradient11686"
       gradientUnits="userSpaceOnUse"
       gradientTransform="matrix(1,0,0,0.30131,0,30.63319)"
       cx="37.53125"
       cy="43.84375"
       fx="37.53125"
       fy="43.84375"
       r="7.15625" />
    <linearGradient
       inkscape:collect="always"
       xlink:href="#linearGradient10720"
       id="linearGradient11701"
       gradientUnits="userSpaceOnUse"
       x1="10.088817"
       y1="49.193985"
       x2="9.8219881"
       y2="50.832207"
       gradientTransform="translate(3.0980767,0.6339736)" />
    <linearGradient
       inkscape:collect="always"
       xlink:href="#linearGradient9282"
       id="linearGradient11703"
       gradientUnits="userSpaceOnUse"
       x1="8.8512592"
       y1="47.832687"
       x2="8.8299723"
       y2="52.440712"
       gradientTransform="translate(3.0980767,0.6339736)" />
    <linearGradient
       inkscape:collect="always"
       xlink:href="#linearGradient10720"
       id="linearGradient11706"
       gradientUnits="userSpaceOnUse"
       x1="14.906082"
       y1="49.146111"
       x2="14.761026"
       y2="50.683853"
       gradientTransform="translate(3.0980767,0.6339736)" />
    <linearGradient
       inkscape:collect="always"
       xlink:href="#linearGradient9282"
       id="linearGradient11708"
       gradientUnits="userSpaceOnUse"
       x1="13.554059"
       y1="48.268845"
       x2="13.373383"
       y2="51.237896"
       gradientTransform="translate(3.0980767,0.6339736)" />
    <linearGradient
       inkscape:collect="always"
       xlink:href="#linearGradient10704"
       id="linearGradient11714"
       gradientUnits="userSpaceOnUse"
       x1="45.378494"
       y1="35.176777"
       x2="40.305229"
       y2="29.011459"
       gradientTransform="matrix(1,0,0,0.8740938,2.875,3.2286399)" />
    <linearGradient
       inkscape:collect="always"
       xlink:href="#linearGradient9282"
       id="linearGradient12424"
       x1="10.893235"
       y1="36.43845"
       x2="15.50736"
       y2="44.76833"
       gradientUnits="userSpaceOnUse" />
    <linearGradient
       inkscape:collect="always"
       xlink:href="#linearGradient10350"
       id="linearGradient12430"
       gradientUnits="userSpaceOnUse"
       x1="11.980334"
       y1="35.990837"
       x2="15.065362"
       y2="46.266663" />
    <linearGradient
       inkscape:collect="always"
       xlink:href="#linearGradient10350"
       id="linearGradient12443"
       gradientUnits="userSpaceOnUse"
       x1="11.980334"
       y1="35.990837"
       x2="15.065362"
       y2="46.266663" />
    <linearGradient
       inkscape:collect="always"
       xlink:href="#linearGradient10350"
       id="linearGradient5121"
       gradientUnits="userSpaceOnUse"
       x1="11.980334"
       y1="35.990837"
       x2="15.065362"
       y2="46.266663" />
    <linearGradient
       inkscape:collect="always"
       xlink:href="#linearGradient9282"
       id="linearGradient5125"
       gradientUnits="userSpaceOnUse"
       x1="10.893235"
       y1="36.43845"
       x2="15.50736"
       y2="44.76833" />
    <linearGradient
       inkscape:collect="always"
       xlink:href="#linearGradient10350"
       id="linearGradient5127"
       gradientUnits="userSpaceOnUse"
       x1="11.980334"
       y1="35.990837"
       x2="15.065362"
       y2="46.266663" />
    <linearGradient
       inkscape:collect="always"
       xlink:href="#linearGradient9282"
       id="linearGradient5133"
       gradientUnits="userSpaceOnUse"
       x1="10.893235"
       y1="36.43845"
       x2="15.50736"
       y2="44.76833"
       gradientTransform="matrix(1.3831731,0,0,1.3831731,-28.487501,-20.529809)" />
    <linearGradient
       inkscape:collect="always"
       xlink:href="#linearGradient10350"
       id="linearGradient5139"
       gradientUnits="userSpaceOnUse"
       x1="11.980334"
       y1="35.990837"
       x2="15.065362"
       y2="46.266663"
       gradientTransform="matrix(1.1855769,0,0,1.1855769,-25.775,-12.382692)" />
    <linearGradient
       inkscape:collect="always"
       xlink:href="#linearGradient9282"
       id="linearGradient5142"
       gradientUnits="userSpaceOnUse"
       gradientTransform="matrix(1.3831731,0,0,1.3831731,-8.487501,-20.529809)"
       x1="10.893235"
       y1="36.43845"
       x2="15.50736"
       y2="44.76833" />
    <inkscape:perspective
       id="perspective1538"
       inkscape:persp3d-origin="0.5 : 0.33333333 : 1"
       inkscape:vp_z="1 : 0.5 : 1"
       inkscape:vp_y="0 : 1000 : 0"
       inkscape:vp_x="0 : 0.5 : 1"
       sodipodi:type="inkscape:persp3d" />
    <linearGradient
       inkscape:collect="always"
       xlink:href="#linearGradient4370"
       id="linearGradient1075"
       x1="33.402893"
       y1="25.545414"
       x2="32.849697"
       y2="24.88509"
       gradientUnits="userSpaceOnUse" />
    <linearGradient
       inkscape:collect="always"
       id="linearGradient4370">
      <stop
         style="stop-color:#2e3436;stop-opacity:1"
         offset="0"
         id="stop4372" />
      <stop
         style="stop-color:#888a85;stop-opacity:1"
         offset="1"
         id="stop4374" />
    </linearGradient>
    <inkscape:perspective
       id="perspective1576"
       inkscape:persp3d-origin="0.5 : 0.33333333 : 1"
       inkscape:vp_z="1 : 0.5 : 1"
       inkscape:vp_y="0 : 1000 : 0"
       inkscape:vp_x="0 : 0.5 : 1"
       sodipodi:type="inkscape:persp3d" />
    <linearGradient
       inkscape:collect="always"
       xlink:href="#linearGradient4370-8"
       id="linearGradient1075-8"
       x1="33.402893"
       y1="25.545414"
       x2="32.849697"
       y2="24.88509"
       gradientUnits="userSpaceOnUse" />
    <linearGradient
       inkscape:collect="always"
       id="linearGradient4370-8">
      <stop
         style="stop-color:#2e3436;stop-opacity:1"
         offset="0"
         id="stop4372-2" />
      <stop
         style="stop-color:#888a85;stop-opacity:1"
         offset="1"
         id="stop4374-7" />
    </linearGradient>
    <inkscape:perspective
       id="perspective1613"
       inkscape:persp3d-origin="0.5 : 0.33333333 : 1"
       inkscape:vp_z="1 : 0.5 : 1"
       inkscape:vp_y="0 : 1000 : 0"
       inkscape:vp_x="0 : 0.5 : 1"
       sodipodi:type="inkscape:persp3d" />
    <linearGradient
       inkscape:collect="always"
       xlink:href="#linearGradient4370-8-1"
       id="linearGradient1075-8-7"
       x1="33.402893"
       y1="25.545414"
       x2="32.849697"
       y2="24.88509"
       gradientUnits="userSpaceOnUse" />
    <linearGradient
       inkscape:collect="always"
       id="linearGradient4370-8-1">
      <stop
         style="stop-color:#2e3436;stop-opacity:1"
         offset="0"
         id="stop4372-2-2" />
      <stop
         style="stop-color:#888a85;stop-opacity:1"
         offset="1"
         id="stop4374-7-6" />
    </linearGradient>
  </defs>
  <sodipodi:namedview
     id="base"
     pagecolor="#ffffff"
     bordercolor="#666666"
     borderopacity="0.14117647"
     inkscape:pageopacity="0.0"
     inkscape:pageshadow="2"
     inkscape:zoom="22.627417"
     inkscape:cx="24.901216"
     inkscape:cy="15.351305"
     inkscape:current-layer="layer1"
     showgrid="true"
     inkscape:grid-bbox="true"
     inkscape:document-units="px"
     borderlayer="false"
     inkscape:window-width="1600"
     inkscape:window-height="838"
     inkscape:window-x="-8"
     inkscape:window-y="-8"
     width="48px"
     height="48px"
     inkscape:snap-bbox="false"
     objecttolerance="1"
     gridtolerance="1"
     inkscape:snap-nodes="false"
     inkscape:showpageshadow="false">
    <inkscape:grid
       type="xygrid"
       id="grid5115" />
  </sodipodi:namedview>
  <metadata
     id="metadata2175">
    <rdf:RDF>
      <cc:Work
         rdf:about="">
        <dc:format>image/svg+xml</dc:format>
        <dc:type
           rdf:resource="http://purl.org/dc/dcmitype/StillImage" />
        <dc:title></dc:title>
        <dc:date>2007-08-19</dc:date>
        <dc:creator>
          <cc:Agent>
            <dc:title>Ashley Kyd</dc:title>
          </cc:Agent>
        </dc:creator>
        <dc:rights>
          <cc:Agent>
            <dc:title />
          </cc:Agent>
        </dc:rights>
        <cc:license
           rdf:resource="http://creativecommons.org/licenses/by-sa/2.5/" />
        <dc:subject>
          <rdf:Bag>
            <rdf:li>multimedia</rdf:li>
            <rdf:li>player</rdf:li>
            <rdf:li>e200</rdf:li>
          </rdf:Bag>
        </dc:subject>
        <dc:description>A vector representation of a popular proprietary portable music devic </dc:description>
        <dc:identifier>http://techtoucian.net/regulars/art/multimedia-player-e200/</dc:identifier>
        <dc:contributor>
          <cc:Agent>
            <dc:title>Simon Pascal Klein</dc:title>
          </cc:Agent>
        </dc:contributor>
      </cc:Work>
      <cc:License
         rdf:about="http://creativecommons.org/licenses/by-sa/2.5/">
        <cc:permits
           rdf:resource="http://web.resource.org/cc/Reproduction" />
        <cc:permits
           rdf:resource="http://web.resource.org/cc/Distribution" />
        <cc:requires
           rdf:resource="http://web.resource.org/cc/Notice" />
        <cc:requires
           rdf:resource="http://web.resource.org/cc/Attribution" />
        <cc:permits
           rdf:resource="http://web.resource.org/cc/DerivativeWorks" />
        <cc:requires
           rdf:resource="http://web.resource.org/cc/ShareAlike" />
      </cc:License>
    </rdf:RDF>
  </metadata>
  <g
     id="layer1"
     inkscape:label="Layer 1"
     inkscape:groupmode="layer">
    <path
       transform="matrix(0.8384279,0,0,0.9275362,-20.467247,1.3333345)"
       sodipodi:type="arc"
       style="opacity:0.4835165;color:#000000;fill:url(#radialGradient8269);fill-opacity:1;fill-rule:evenodd;stroke:none;stroke-width:1;stroke-linecap:butt;stroke-linejoin:miter;marker:none;marker-start:none;marker-mid:none;marker-end:none;stroke-miterlimit:4;stroke-dasharray:none;stroke-dashoffset:0;stroke-opacity:1;visibility:visible;display:block;overflow:visible"
       id="path5104"
       sodipodi:cx="37.53125"
       sodipodi:cy="43.84375"
       sodipodi:rx="7.15625"
       sodipodi:ry="2.15625"
       d="M 44.6875,43.84375 A 7.15625,2.15625 0 1 1 30.375,43.84375 A 7.15625,2.15625 0 1 1 44.6875,43.84375 z"
       inkscape:r_cx="true"
       inkscape:r_cy="true" />
    <path
       style="fill:none;fill-opacity:0.75;fill-rule:evenodd;stroke:#2e3436;stroke-width:1.91250205;stroke-linecap:butt;stroke-linejoin:round;stroke-miterlimit:4;stroke-dasharray:none;stroke-opacity:1;display:inline"
       d="M 43.373562,33.857875 C 49.837744,29.99307 37.51846,28.538501 36.831251,28.725904"
       id="path10310"
       sodipodi:nodetypes="cs" />
    <path
       style="fill:none;fill-opacity:1;fill-rule:evenodd;stroke:url(#linearGradient11714);stroke-width:0.78483576;stroke-linecap:butt;stroke-linejoin:miter;stroke-miterlimit:4;stroke-dasharray:none;stroke-opacity:1;display:inline"
       d="M 43.432581,33.633432 C 50.095639,29.971091 36.472626,28.100425 35.785407,28.26405"
       id="path10312"
       sodipodi:nodetypes="cs" />
    <path
       transform="matrix(1.3831731,0,0,1.3831731,-8.4875006,-20.529809)"
       d="M 18.788321,41.231144 A 5.0608273,5.0608273 0 1 1 8.666667,41.231144 A 5.0608273,5.0608273 0 1 1 18.788321,41.231144 z"
       sodipodi:ry="5.0608273"
       sodipodi:rx="5.0608273"
       sodipodi:cy="41.231144"
       sodipodi:cx="13.727494"
       id="path8190"
       style="fill:none;fill-opacity:1;stroke:url(#linearGradient12424);stroke-width:0.72297531;stroke-linecap:round;stroke-linejoin:round;stroke-miterlimit:4;stroke-dasharray:none;stroke-opacity:1;display:inline"
       sodipodi:type="arc"
       inkscape:r_cx="true"
       inkscape:r_cy="true" />
    <path
       transform="matrix(1.284375,0,0,1.284375,-7.1312503,-16.45625)"
       d="M 18.788321,41.231144 A 5.0608273,5.0608273 0 1 1 8.666667,41.231144 A 5.0608273,5.0608273 0 1 1 18.788321,41.231144 z"
       sodipodi:ry="5.0608273"
       sodipodi:rx="5.0608273"
       sodipodi:cy="41.231144"
       sodipodi:cx="13.727494"
       id="path8192"
       style="fill:#333333;fill-opacity:1;stroke:none;stroke-width:1.79999994999999990;stroke-linecap:round;stroke-linejoin:round;stroke-miterlimit:4;stroke-dasharray:none;stroke-opacity:1;display:inline"
       sodipodi:type="arc"
       inkscape:r_cx="true"
       inkscape:r_cy="true" />
    <path
       inkscape:r_cy="true"
       inkscape:r_cx="true"
       sodipodi:type="arc"
       style="opacity:0.75;fill:none;fill-opacity:1;stroke:url(#linearGradient12430);stroke-width:0.84347129;stroke-linecap:round;stroke-linejoin:round;stroke-miterlimit:4;stroke-dasharray:none;stroke-opacity:1;display:inline"
       id="path10341"
       sodipodi:cx="13.727494"
       sodipodi:cy="41.231144"
       sodipodi:rx="5.0608273"
       sodipodi:ry="5.0608273"
       d="M 18.788321,41.231144 A 5.0608273,5.0608273 0 1 1 8.666667,41.231144 A 5.0608273,5.0608273 0 1 1 18.788321,41.231144 z"
       transform="matrix(1.1855769,0,0,1.1855769,-5.7749999,-12.382692)" />
    <path
       style="fill:#1a1a1a;fill-opacity:1;stroke:none;stroke-width:1.79999994999999990;stroke-linecap:round;stroke-linejoin:round;stroke-miterlimit:4;stroke-dasharray:none;stroke-opacity:1;display:inline"
       d="M 10.5 31 C 10.320436 31 10.143864 31.014497 9.96875 31.03125 C 10.08086 31.231168 10.288377 31.375 10.53125 31.375 C 10.774125 31.375 10.98164 31.231168 11.09375 31.03125 C 10.898979 31.010446 10.700367 31 10.5 31 z M 9.28125 31.375 C 8.9244876 31.375 8.625 31.674488 8.625 32.03125 C 8.6249996 32.388017 8.9244864 32.625 9.28125 32.625 C 9.6380131 32.624999 9.875 32.388015 9.875 32.03125 C 9.8750002 31.67449 9.6380127 31.375 9.28125 31.375 z M 11.84375 31.375 C 11.486988 31.375 11.1875 31.674488 11.1875 32.03125 C 11.1875 32.388017 11.486988 32.625 11.84375 32.625 C 12.20051 32.624999 12.5 32.388015 12.5 32.03125 C 12.5 31.67449 12.20051 31.375 11.84375 31.375 z M 7.3125 32.03125 C 7.073466 32.202539 6.8644678 32.418433 6.65625 32.625 C 7.0130131 32.624999 7.3124994 32.388015 7.3125 32.03125 z M 13.75 32.09375 C 13.784298 32.403683 14.056394 32.610742 14.375 32.625 C 14.18259 32.43259 13.969157 32.256019 13.75 32.09375 z M 7.96875 32.625 C 7.6119866 32.624999 7.3124998 32.924485 7.3125 33.28125 C 7.3124992 33.638012 7.6119869 33.9375 7.96875 33.9375 C 8.3255132 33.937503 8.625 33.638013 8.625 33.28125 C 8.6249996 32.924484 8.3255133 32.625 7.96875 32.625 z M 10.53125 32.625 C 10.174487 32.624999 9.875 32.924485 9.875 33.28125 C 9.8750002 33.638012 10.174487 33.9375 10.53125 33.9375 C 10.888015 33.937503 11.1875 33.638013 11.1875 33.28125 C 11.1875 32.924484 10.888015 32.625 10.53125 32.625 z M 13.15625 32.625 C 12.799488 32.624999 12.5 32.924485 12.5 33.28125 C 12.5 33.638012 12.799488 33.9375 13.15625 33.9375 C 13.513015 33.937503 13.75 33.638013 13.75 33.28125 C 13.75 32.924484 13.513015 32.625 13.15625 32.625 z M 6 33.375 C 5.8961429 33.523775 5.7765083 33.653434 5.6875 33.8125 C 5.8413664 33.712591 5.971319 33.562557 6 33.375 z M 6.65625 33.9375 C 6.2994868 33.937503 5.9999998 34.236989 6 34.59375 C 6.0000002 34.950515 6.2994861 35.25 6.65625 35.25 C 7.0130131 35.249999 7.3124994 34.950513 7.3125 34.59375 C 7.3124992 34.236991 7.0130128 33.9375 6.65625 33.9375 z M 9.28125 33.9375 C 8.9244876 33.937503 8.625 34.236991 8.625 34.59375 C 8.6249996 34.950515 8.9244864 35.250004 9.28125 35.25 C 9.6380131 35.249999 9.875 34.950518 9.875 34.59375 C 9.8750002 34.236991 9.6380127 33.937502 9.28125 33.9375 z M 11.84375 33.9375 C 11.486988 33.937503 11.1875 34.236991 11.1875 34.59375 C 11.1875 34.950515 11.486988 35.250004 11.84375 35.25 C 12.20051 35.249999 12.5 34.950518 12.5 34.59375 C 12.5 34.236991 12.20051 33.937502 11.84375 33.9375 z M 14.40625 33.9375 C 14.049488 33.937503 13.75 34.236991 13.75 34.59375 C 13.75 34.950515 14.049488 35.250004 14.40625 35.25 C 14.763013 35.249999 15.0625 34.950518 15.0625 34.59375 C 15.0625 34.236991 14.763013 33.937502 14.40625 33.9375 z M 5.34375 35.25 C 5.2765139 35.25 5.2154631 35.261842 5.15625 35.28125 C 5.0732667 35.651384 5.0044145 36.043093 5 36.4375 C 5.096295 36.504718 5.213619 36.53125 5.34375 36.53125 C 5.7005133 36.531251 5.9999995 36.263013 6 35.90625 C 6.0000002 35.549488 5.7005129 35.25 5.34375 35.25 z M 7.96875 35.25 C 7.6119866 35.249999 7.3124998 35.549487 7.3125 35.90625 C 7.3124992 36.263013 7.6119869 36.53125 7.96875 36.53125 C 8.3255132 36.531251 8.625 36.263013 8.625 35.90625 C 8.6249996 35.549488 8.3255133 35.25 7.96875 35.25 z M 10.53125 35.25 C 10.174487 35.249999 9.875 35.549489 9.875 35.90625 C 9.8750002 36.263013 10.174487 36.531252 10.53125 36.53125 C 10.888015 36.531251 11.1875 36.263014 11.1875 35.90625 C 11.1875 35.549488 10.888015 35.250004 10.53125 35.25 z M 13.15625 35.25 C 12.799488 35.249999 12.5 35.549487 12.5 35.90625 C 12.5 36.263013 12.799488 36.53125 13.15625 36.53125 C 13.513015 36.531251 13.75 36.263013 13.75 35.90625 C 13.75 35.549488 13.513015 35.25 13.15625 35.25 z M 15.71875 35.4375 C 15.361988 35.4375 15.0625 35.70574 15.0625 36.0625 C 15.0625 36.419262 15.361988 36.718755 15.71875 36.71875 C 15.81638 36.71875 15.913212 36.724069 16 36.6875 C 16.002104 36.624851 16 36.563169 16 36.5 C 16 36.150642 15.937033 35.799883 15.875 35.46875 C 15.819369 35.450361 15.776793 35.4375 15.71875 35.4375 z M 6.65625 36.53125 C 6.2994868 36.531251 5.9999998 36.799489 6 37.15625 C 6.0000002 37.513014 6.2994861 37.812502 6.65625 37.8125 C 7.0130131 37.812499 7.3124994 37.513016 7.3125 37.15625 C 7.3124992 36.799486 7.0130128 36.531252 6.65625 36.53125 z M 9.28125 36.53125 C 8.9244876 36.531251 8.625 36.799489 8.625 37.15625 C 8.6249996 37.513014 8.9244864 37.812502 9.28125 37.8125 C 9.6380131 37.812499 9.875 37.513016 9.875 37.15625 C 9.8750002 36.799486 9.6380127 36.531252 9.28125 36.53125 z M 11.84375 36.53125 C 11.486988 36.531251 11.1875 36.799489 11.1875 37.15625 C 11.1875 37.513014 11.486988 37.812502 11.84375 37.8125 C 12.20051 37.812499 12.5 37.513016 12.5 37.15625 C 12.5 36.799486 12.20051 36.531252 11.84375 36.53125 z M 14.40625 36.53125 C 14.049488 36.531251 13.75 36.799489 13.75 37.15625 C 13.75 37.513014 14.049488 37.812502 14.40625 37.8125 C 14.763013 37.812499 15.0625 37.513016 15.0625 37.15625 C 15.0625 36.799486 14.763013 36.531252 14.40625 36.53125 z M 5.34375 37.8125 C 5.2886616 37.8125 5.2373335 37.830532 5.1875 37.84375 C 5.2945332 38.270931 5.4247832 38.681728 5.625 39.0625 C 5.8453687 38.957224 5.9999996 38.726717 6 38.46875 C 6.0000002 38.111982 5.7005129 37.8125 5.34375 37.8125 z M 7.96875 37.8125 C 7.6119866 37.812499 7.3124998 38.111985 7.3125 38.46875 C 7.3124992 38.82551 7.6119869 39.125 7.96875 39.125 C 8.3255132 39.125001 8.625 38.825513 8.625 38.46875 C 8.6249996 38.111982 8.3255133 37.8125 7.96875 37.8125 z M 10.53125 37.8125 C 10.174487 37.812499 9.875 38.111985 9.875 38.46875 C 9.8750002 38.82551 10.174487 39.125 10.53125 39.125 C 10.888015 39.125001 11.1875 38.825513 11.1875 38.46875 C 11.1875 38.111982 10.888015 37.8125 10.53125 37.8125 z M 13.15625 37.8125 C 12.799488 37.812499 12.5 38.111985 12.5 38.46875 C 12.5 38.82551 12.799488 39.125 13.15625 39.125 C 13.513015 39.125001 13.75 38.825513 13.75 38.46875 C 13.75 38.111982 13.513015 37.8125 13.15625 37.8125 z M 15.71875 37.8125 C 15.361988 37.812499 15.0625 38.111985 15.0625 38.46875 C 15.0625 38.708666 15.20996 38.892153 15.40625 39 C 15.590734 38.637676 15.71143 38.247132 15.8125 37.84375 C 15.78198 37.835416 15.754698 37.8125 15.71875 37.8125 z M 6.65625 39.125 C 6.3335891 39.125001 6.0803662 39.37741 6.03125 39.6875 C 6.2196568 39.950421 6.42542 40.212119 6.65625 40.4375 C 6.6614929 40.442619 6.6822367 40.432402 6.6875 40.4375 C 7.0300612 40.420839 7.3125 40.127524 7.3125 39.78125 C 7.3124992 39.424488 7.0130133 39.125002 6.65625 39.125 z M 9.28125 39.125 C 8.9244876 39.125001 8.625 39.424489 8.625 39.78125 C 8.6249996 40.138016 8.9244864 40.437504 9.28125 40.4375 C 9.6380131 40.437498 9.875 40.138017 9.875 39.78125 C 9.8750002 39.424488 9.6380127 39.125002 9.28125 39.125 z M 11.84375 39.125 C 11.486988 39.125001 11.1875 39.424489 11.1875 39.78125 C 11.1875 40.138016 11.486988 40.437504 11.84375 40.4375 C 12.20051 40.437498 12.5 40.138017 12.5 39.78125 C 12.5 39.424488 12.20051 39.125002 11.84375 39.125 z M 14.40625 39.125 C 14.049488 39.125001 13.75 39.424489 13.75 39.78125 C 13.75 40.114407 14.019157 40.370719 14.34375 40.40625 C 14.588782 40.165089 14.834754 39.908438 15.03125 39.625 C 14.958864 39.344105 14.707925 39.125002 14.40625 39.125 z M 7.96875 40.4375 C 7.6329727 40.437498 7.3444295 40.644321 7.3125 40.96875 C 7.6407884 41.203998 7.9668451 41.403302 8.34375 41.5625 C 8.5111253 41.443795 8.625 41.249425 8.625 41.03125 C 8.6249996 40.674483 8.3255133 40.4375 7.96875 40.4375 z M 10.53125 40.4375 C 10.174487 40.437498 9.875 40.674489 9.875 41.03125 C 9.8750002 41.388012 10.174487 41.687502 10.53125 41.6875 C 10.888015 41.687498 11.1875 41.388015 11.1875 41.03125 C 11.1875 40.674483 10.888015 40.437504 10.53125 40.4375 z M 13.15625 40.4375 C 12.799488 40.437498 12.5 40.674489 12.5 41.03125 C 12.5 41.226783 12.579855 41.411156 12.71875 41.53125 C 13.092006 41.367739 13.425708 41.17599 13.75 40.9375 C 13.707843 40.631294 13.480083 40.437504 13.15625 40.4375 z M 9.28125 41.6875 C 9.1749074 41.687499 9.0579702 41.734976 8.96875 41.78125 C 9.2250238 41.855522 9.4796821 41.900914 9.75 41.9375 C 9.6400094 41.789279 9.4843303 41.687501 9.28125 41.6875 z M 11.84375 41.6875 C 11.650275 41.687499 11.463762 41.769867 11.34375 41.90625 C 11.616234 41.864584 11.867314 41.83001 12.125 41.75 C 12.042356 41.708208 11.943878 41.687501 11.84375 41.6875 z "
       id="path8725" />
    <path
       transform="matrix(1.1855769,0,0,1.1855769,-5.7749999,-12.382692)"
       d="M 18.788321,41.231144 A 5.0608273,5.0608273 0 1 1 8.666667,41.231144 A 5.0608273,5.0608273 0 1 1 18.788321,41.231144 z"
       sodipodi:ry="5.0608273"
       sodipodi:rx="5.0608273"
       sodipodi:cy="41.231144"
       sodipodi:cx="13.727494"
       id="path8858"
       style="opacity:0.75;fill:none;fill-opacity:1;stroke:url(#linearGradient12443);stroke-width:0.84347129;stroke-linecap:round;stroke-linejoin:round;stroke-miterlimit:4;stroke-dasharray:none;stroke-opacity:1;display:inline"
       sodipodi:type="arc"
       inkscape:r_cx="true"
       inkscape:r_cy="true" />
    <g
       style="display:inline"
       id="g5022"
       transform="matrix(1.3790156e-2,0,0,1.6723903e-2,38.265455,42.52024)">
      <rect
         y="-150.69685"
         x="-1559.2523"
         height="478.35718"
         width="1339.6335"
         id="rect4173"
         style="opacity:0.40206185;color:#000000;fill:url(#linearGradient10778);fill-opacity:1;fill-rule:nonzero;stroke:none;stroke-width:1;stroke-linecap:round;stroke-linejoin:miter;marker:none;marker-start:none;marker-mid:none;marker-end:none;stroke-miterlimit:4;stroke-dasharray:none;stroke-dashoffset:0;stroke-opacity:1;visibility:visible;display:inline;overflow:visible" />
      <path
         sodipodi:nodetypes="cccc"
         id="path5058"
         d="M -219.61876,-150.68038 C -219.61876,-150.68038 -219.61876,327.65041 -219.61876,327.65041 C -76.744594,328.55086 125.78146,220.48075 125.78138,88.454235 C 125.78138,-43.572302 -33.655436,-150.68036 -219.61876,-150.68038 z"
         style="opacity:0.40206185;color:#000000;fill:url(#radialGradient10780);fill-opacity:1;fill-rule:nonzero;stroke:none;stroke-width:1;stroke-linecap:round;stroke-linejoin:miter;marker:none;marker-start:none;marker-mid:none;marker-end:none;stroke-miterlimit:4;stroke-dasharray:none;stroke-dashoffset:0;stroke-opacity:1;visibility:visible;display:inline;overflow:visible" />
      <path
         style="opacity:0.40206185;color:#000000;fill:url(#radialGradient10782);fill-opacity:1;fill-rule:nonzero;stroke:none;stroke-width:1;stroke-linecap:round;stroke-linejoin:miter;marker:none;marker-start:none;marker-mid:none;marker-end:none;stroke-miterlimit:4;stroke-dasharray:none;stroke-dashoffset:0;stroke-opacity:1;visibility:visible;display:inline;overflow:visible"
         d="M -1559.2523,-150.68038 C -1559.2523,-150.68038 -1559.2523,327.65041 -1559.2523,327.65041 C -1702.1265,328.55086 -1904.6525,220.48075 -1904.6525,88.454235 C -1904.6525,-43.572302 -1745.2157,-150.68036 -1559.2523,-150.68038 z"
         id="path5018"
         sodipodi:nodetypes="cccc" />
    </g>
    <rect
       style="fill:#2e3436;fill-opacity:1;stroke:#000000;stroke-width:0.98793429;stroke-linecap:butt;stroke-linejoin:round;stroke-miterlimit:4;stroke-opacity:1;stroke-dasharray:none"
       id="rect3930"
       width="23.012066"
       height="39.995598"
       x="14.493967"
       y="5.5104332"
       rx="3.0015736" />
    <rect
       rx="1.944858"
       y="6.5540571"
       x="15.493387"
       height="37.952549"
       width="21.013214"
       id="rect3934"
       style="fill:none;stroke:url(#linearGradient10774);stroke-width:0.98678994;stroke-linecap:butt;stroke-linejoin:round;stroke-miterlimit:4;stroke-opacity:1;stroke-dasharray:none" />
    <g
       style="display:inline"
       id="g11258"
       transform="matrix(1.0806671,0,0,0.93586513,2.7240035,5.6514856)">
      <g
         style="fill:#ffffff;fill-opacity:1"
         id="g11260">
        <path
           sodipodi:type="star"
           style="fill:#ffffff;fill-opacity:1;stroke:none;display:inline"
           id="path11262"
           sodipodi:sides="3"
           sodipodi:cx="16.875"
           sodipodi:cy="5.75"
           sodipodi:r1="0.6502704"
           sodipodi:r2="0.3251352"
           sodipodi:arg1="0.95613337"
           sodipodi:arg2="2.0033309"
           inkscape:flatsided="false"
           inkscape:rounded="0"
           inkscape:randomized="0"
           d="M 17.25,6.28125 16.738712,6.0451923 16.227424,5.8091345 16.6875,5.484375 17.147576,5.1596154 17.198788,5.7204327 17.25,6.28125 z"
           transform="matrix(0.314794,-0.435197,0.44667,0.307983,21.21828,34.76076)" />
        <path
           sodipodi:type="star"
           style="fill:#ffffff;fill-opacity:1;stroke:none;display:inline"
           id="path11264"
           sodipodi:sides="3"
           sodipodi:cx="16.875"
           sodipodi:cy="5.75"
           sodipodi:r1="0.6502704"
           sodipodi:r2="0.3251352"
           sodipodi:arg1="0.95613337"
           sodipodi:arg2="2.0033309"
           inkscape:flatsided="false"
           inkscape:rounded="0"
           inkscape:randomized="0"
           d="M 17.25,6.28125 16.738712,6.0451923 16.227424,5.8091345 16.6875,5.484375 17.147576,5.1596154 17.198788,5.7204327 17.25,6.28125 z"
           transform="matrix(0.314794,-0.435197,0.44667,0.307983,20.71828,34.76076)" />
      </g>
      <rect
         ry="0"
         y="28.891544"
         x="29.455418"
         height="0.60214609"
         width="0.10496103"
         id="rect11266"
         style="fill:#ffffff;fill-opacity:1;stroke:none" />
    </g>
    <rect
       style="fill:#729fcf;fill-opacity:1;stroke:url(#linearGradient10771);stroke-width:0.96468973;stroke-linecap:butt;stroke-linejoin:miter;stroke-miterlimit:4;stroke-opacity:1;stroke-dasharray:none"
       id="rect3952"
       width="17.035311"
       height="13.930456"
       x="17.482361"
       y="8.5872002" />
    <path
       transform="matrix(0.84722629,0,0,0.82550804,-25.946863,4.0770518)"
       d="M 68.875,35 A 7.5625,7.5625 0 1 1 53.75,35 7.5625,7.5625 0 1 1 68.875,35 z"
       sodipodi:ry="7.5625"
       sodipodi:rx="7.5625"
       sodipodi:cy="35"
       sodipodi:cx="61.3125"
       id="path3979"
       style="fill:#2e3436;fill-opacity:1;stroke:#7fb5ee;stroke-width:1.375;stroke-linecap:butt;stroke-linejoin:miter;stroke-miterlimit:4;stroke-opacity:1;stroke-dasharray:none"
       sodipodi:type="arc" />
    <path
       style="opacity:0.12000002;fill:#000000;fill-opacity:1;fill-rule:evenodd;stroke:none;stroke-width:1;stroke-linecap:butt;stroke-linejoin:miter;stroke-miterlimit:4;stroke-dasharray:none;stroke-opacity:1"
       d="M 20.85477,16.000166 C 19.922797,15.99323 18.980125,16.20249 18,16.800144 L 18.066388,22 L 34,22 L 33.93361,17.111247 C 28.68966,20.327092 24.893324,16.03022 20.85477,16.000166 z"
       id="path4068" />
    <path
       sodipodi:type="arc"
       style="opacity:0.72043014000000005;fill:#333333;fill-opacity:1;stroke:none;stroke-width:1.49469243999999990;stroke-linecap:butt;stroke-linejoin:miter;stroke-miterlimit:4;stroke-dasharray:none;stroke-opacity:1"
       id="path4000"
       sodipodi:cx="61.3125"
       sodipodi:cy="35"
       sodipodi:rx="7.5625"
       sodipodi:ry="7.5625"
       d="M 68.875,35 A 7.5625,7.5625 0 1 1 53.75,35 A 7.5625,7.5625 0 1 1 68.875,35 z"
       transform="matrix(-0.661157,0,0,-0.661157,66.537188,56.140496)" />
    <path
       style="opacity:0.25806448;fill:url(#linearGradient10760);fill-opacity:1;stroke:none"
       d="m 17.463235,7.104854 c -0.752808,0 -1.463234,0.5326758 -1.463234,1.4604042 l 0,34.6620448 c 0,0.604087 0.822301,0.471379 1.336634,0.772698 6.458211,-0.620688 6.533533,-24.899759 13.458275,-30.905364 l 5.205091,-4.5142081 c 0,-0.8679378 -0.562732,-1.4755749 -1.525735,-1.4755749 l -17.011031,0 z"
       id="rect4053"
       sodipodi:nodetypes="ccccsccc" />
    <rect
       style="fill:none;stroke:#141414;stroke-width:0.98552984;stroke-linecap:butt;stroke-linejoin:round;stroke-miterlimit:4;stroke-opacity:1;stroke-dasharray:none"
       id="rect5762"
       width="19.014469"
       height="35.909618"
       x="16.49276"
       y="7.5976195"
       rx="0.938214"
       ry="0.909872" />
    <g
       transform="matrix(1.315757,0,0,1.315757,37.663063,-9.5703671)"
       id="g6589"
       style="fill:#a2a6a7;fill-opacity:1;display:inline" />
    <g
       transform="matrix(-1.0806671,0,0,1.2273689,49.291764,-2.7692597)"
       id="g3596"
       style="display:inline">
      <g
         id="g3598"
         style="fill:#ffffff;fill-opacity:1">
        <path
           transform="matrix(0.314794,-0.435197,0.44667,0.307983,21.21828,34.76076)"
           d="M 17.25,6.28125 16.738712,6.0451923 16.227424,5.8091345 16.6875,5.484375 17.147576,5.1596154 17.198788,5.7204327 17.25,6.28125 z"
           inkscape:randomized="0"
           inkscape:rounded="0"
           inkscape:flatsided="false"
           sodipodi:arg2="2.0033309"
           sodipodi:arg1="0.95613337"
           sodipodi:r2="0.3251352"
           sodipodi:r1="0.6502704"
           sodipodi:cy="5.75"
           sodipodi:cx="16.875"
           sodipodi:sides="3"
           id="path3600"
           style="fill:#ffffff;fill-opacity:1;stroke:none;display:inline"
           sodipodi:type="star" />
        <path
           transform="matrix(0.314794,-0.435197,0.44667,0.307983,20.71828,34.76076)"
           d="M 17.25,6.28125 16.738712,6.0451923 16.227424,5.8091345 16.6875,5.484375 17.147576,5.1596154 17.198788,5.7204327 17.25,6.28125 z"
           inkscape:randomized="0"
           inkscape:rounded="0"
           inkscape:flatsided="false"
           sodipodi:arg2="2.0033309"
           sodipodi:arg1="0.95613337"
           sodipodi:r2="0.3251352"
           sodipodi:r1="0.6502704"
           sodipodi:cy="5.75"
           sodipodi:cx="16.875"
           sodipodi:sides="3"
           id="path3602"
           style="fill:#ffffff;fill-opacity:1;stroke:none;display:inline"
           sodipodi:type="star" />
      </g>
      <rect
         style="fill:#ffffff;fill-opacity:1;stroke:none"
         id="rect3604"
         width="0.10496103"
         height="0.60214609"
         x="29.455418"
         y="28.891544"
         ry="0" />
    </g>
    <g
       transform="matrix(1.1166514,0,0,0.73769063,-1.1528107,-0.39240082)"
       id="g3616"
       style="display:inline">
      <path
         sodipodi:type="star"
         style="fill:#ffffff;fill-opacity:1;stroke:none;display:inline"
         id="path3618"
         sodipodi:sides="3"
         sodipodi:cx="16.875"
         sodipodi:cy="5.75"
         sodipodi:r1="0.6502704"
         sodipodi:r2="0.3251352"
         sodipodi:arg1="0.95613337"
         sodipodi:arg2="2.0033309"
         inkscape:flatsided="false"
         inkscape:rounded="0"
         inkscape:randomized="0"
         d="M 17.25,6.28125 16.738712,6.0451923 16.227424,5.8091345 16.6875,5.484375 17.147576,5.1596154 17.198788,5.7204327 17.25,6.28125 z"
         transform="matrix(0.461555,-0.638092,0.654914,0.451569,12.10407,43.22973)" />
      <rect
         style="fill:#ffffff;fill-opacity:1;stroke:none"
         id="rect3620"
         width="0.15389533"
         height="0.88287503"
         x="24.306477"
         y="34.624207"
         ry="0" />
      <rect
         style="fill:#ffffff;fill-opacity:1;stroke:none;display:inline"
         id="rect3622"
         width="0.15389533"
         height="0.88287503"
         x="24.682838"
         y="34.620716"
         ry="0" />
    </g>
    <g
       id="layer2"
       inkscape:label="Picture"
       transform="translate(45.010661,-1.0169211)" />
    <g
       transform="matrix(1.315757,0,0,1.315757,88.66679,-8.553446)"
       id="g7288"
       style="fill:#a2a6a7;fill-opacity:1;display:inline" />
    <rect
       inkscape:r_cy="true"
       inkscape:r_cx="true"
       y="23.847883"
       x="122.4425"
       height="1.4142135"
       width="0"
       id="rect10271"
       style="color:#000000;fill:url(#linearGradient8012);fill-opacity:1;fill-rule:nonzero;stroke:none;stroke-width:0.69999999;stroke-linecap:round;stroke-linejoin:miter;marker:none;marker-start:none;marker-mid:none;marker-end:none;stroke-miterlimit:4;stroke-dasharray:none;stroke-dashoffset:0;stroke-opacity:1;visibility:visible;display:inline;overflow:visible" />
    <g
       id="g7355"
       inkscape:label="Picture"
       transform="translate(96.014388,0)" />
    <path
       style="opacity:0.8;fill:#000000;fill-opacity:1;stroke:none"
       d="m 25.9987,27.294463 c -3.215224,0 -5.82468,2.542567 -5.82468,5.675369 0,3.132804 2.609456,5.67537 5.82468,5.675369 3.215223,0 5.824679,-2.542564 5.82468,-5.675369 0,-3.132804 -2.609458,-5.67537 -5.82468,-5.675369 z m -0.07281,0.390182 c 2.913796,1e-6 5.278617,2.3042 5.278617,5.143303 0,2.839103 -2.364821,5.143303 -5.278617,5.143303 -2.913796,0 -5.278616,-2.3042 -5.278616,-5.143303 1e-6,-2.839102 2.36482,-5.143303 5.278616,-5.143303 z"
       id="path10806" />
    <g
       id="g11659"
       transform="matrix(0.44369883,0,0,0.93303475,14.462913,3.8983293)">
      <path
         id="path11270"
         d="m 23.334303,39.25 3.706396,0"
         style="fill:none;stroke:#ffffff;stroke-width:0.21453914;stroke-linecap:butt;stroke-linejoin:miter;stroke-miterlimit:4;stroke-opacity:1;stroke-dasharray:none" />
      <path
         style="fill:none;stroke:#ffffff;stroke-width:0.21453914;stroke-linecap:butt;stroke-linejoin:miter;stroke-miterlimit:4;stroke-opacity:1;stroke-dasharray:none"
         d="m 24.460955,39.6875 2.609344,0"
         id="path11653" />
      <path
         id="path11655"
         d="m 24.460955,40.0625 2.609344,0"
         style="fill:none;stroke:#ffffff;stroke-width:0.21453914;stroke-linecap:butt;stroke-linejoin:miter;stroke-miterlimit:4;stroke-opacity:1;stroke-dasharray:none" />
    </g>
    <path
       inkscape:r_cy="true"
       inkscape:r_cx="true"
       d="M 44.6875,43.84375 A 7.15625,2.15625 0 1 1 30.375,43.84375 A 7.15625,2.15625 0 1 1 44.6875,43.84375 z"
       sodipodi:ry="2.15625"
       sodipodi:rx="7.15625"
       sodipodi:cy="43.84375"
       sodipodi:cx="37.53125"
       id="path5045"
       style="opacity:0.4835165;color:#000000;fill:url(#radialGradient11686);fill-opacity:1;fill-rule:evenodd;stroke:none;stroke-width:1;stroke-linecap:butt;stroke-linejoin:miter;marker:none;marker-start:none;marker-mid:none;marker-end:none;stroke-miterlimit:4;stroke-dasharray:none;stroke-dashoffset:0;stroke-opacity:1;visibility:visible;display:block;overflow:visible"
       sodipodi:type="arc"
       transform="matrix(1.1179039,0,0,1.1594203,-5.4563319,-5.3333351)" />
    <path
       sodipodi:type="arc"
       style="fill:none;fill-opacity:1;fill-rule:nonzero;stroke:#000000;stroke-width:1.3263135;stroke-linecap:butt;stroke-linejoin:miter;stroke-miterlimit:4;stroke-dasharray:none;stroke-dashoffset:0;stroke-opacity:1"
       id="path8891"
       sodipodi:cx="41.365746"
       sodipodi:cy="60.374371"
       sodipodi:rx="8.5736694"
       sodipodi:ry="8.5736694"
       d="M 49.939415,60.374371 A 8.5736694,8.5736694 0 1 1 32.792076,60.374371 A 8.5736694,8.5736694 0 1 1 49.939415,60.374371 z"
       transform="matrix(0.8119672,0,0,0.8119672,2.9123713,-9.5220085)" />
    <path
       sodipodi:type="arc"
       style="color:#000000;fill:#333333;fill-opacity:1;fill-rule:evenodd;stroke:none;stroke-width:1;stroke-linecap:round;stroke-linejoin:miter;marker:none;marker-start:none;marker-mid:none;marker-end:none;stroke-miterlimit:4;stroke-dasharray:none;stroke-dashoffset:0;stroke-opacity:1;visibility:visible;display:block;overflow:visible"
       id="path9274"
       sodipodi:cx="32.75"
       sodipodi:cy="39.5"
       sodipodi:rx="5.3125"
       sodipodi:ry="5.3125"
       d="M 38.0625,39.5 A 5.3125,5.3125 0 1 1 27.4375,39.5 A 5.3125,5.3125 0 1 1 38.0625,39.5 z"
       inkscape:r_cx="true"
       inkscape:r_cy="true"
       transform="matrix(1.2235294,0,0,1.2235294,-3.570589,-8.8294113)" />
    <path
       inkscape:r_cy="true"
       inkscape:r_cx="true"
       sodipodi:type="arc"
       style="opacity:0.75;fill:none;fill-opacity:1;stroke:url(#linearGradient5121);stroke-width:0.84347129;stroke-linecap:round;stroke-linejoin:round;stroke-miterlimit:4;stroke-dasharray:none;stroke-opacity:1;display:inline"
       id="path5119"
       sodipodi:cx="13.727494"
       sodipodi:cy="41.231144"
       sodipodi:rx="5.0608273"
       sodipodi:ry="5.0608273"
       d="M 18.788321,41.231144 A 5.0608273,5.0608273 0 1 1 8.666667,41.231144 A 5.0608273,5.0608273 0 1 1 18.788321,41.231144 z"
       transform="matrix(1.1855769,0,0,1.1855769,20.225,-9.3826917)" />
    <rect
       ry="0.99999988"
       rx="0.99999988"
       y="49.926155"
       x="11.208439"
       height="1.9999998"
       width="10"
       id="rect10288"
       style="fill:url(#linearGradient11706);fill-opacity:1;fill-rule:nonzero;stroke:url(#linearGradient11708);stroke-width:1.00000012;stroke-linecap:butt;stroke-linejoin:miter;stroke-miterlimit:4;stroke-dasharray:none;stroke-dashoffset:0;stroke-opacity:1"
       transform="matrix(0.8660254,-0.5,0.5,0.8660254,0,0)" />
    <rect
       style="fill:url(#linearGradient11701);fill-opacity:1;fill-rule:nonzero;stroke:url(#linearGradient11703);stroke-width:1.00000012;stroke-linecap:butt;stroke-linejoin:miter;stroke-miterlimit:4;stroke-dasharray:none;stroke-dashoffset:0;stroke-opacity:1"
       id="rect9889"
       width="5"
       height="3"
       x="10.678703"
       y="49.408485"
       rx="1.5"
       ry="1.5"
       transform="matrix(0.8660254,-0.5,0.5,0.8660254,0,0)" />
    <text
       xml:space="preserve"
       style="font-size:40px;font-style:normal;font-variant:normal;font-weight:bold;font-stretch:normal;text-align:start;line-height:125%;writing-mode:lr-tb;text-anchor:start;fill:#000000;fill-opacity:1;stroke:none;font-family:Aharoni;-inkscape-font-specification:Aharoni Bold"
       x="7.2478447"
       y="47.116116"
       id="text1212"
       sodipodi:linespacing="125%"><tspan
         sodipodi:role="line"
         id="tspan1214"></tspan></text>
    <rect
       style="fill:#ffffff;fill-opacity:1"
       id="rect1278"
       width="2.8726211"
       height="3.1819806"
       x="31.731417"
       y="24.046757" />
    <path
       style="fill:#2e3436;fill-opacity:1"
       d="m 31.541428,25.658925 0,-1.83406 1.613088,0 1.613087,0 0,1.83406 0,1.834057 -1.613087,0 -1.613088,0 0,-1.834057 z"
       id="path1280" />
    <path
       sodipodi:type="arc"
       style="fill:#1a1a1a;fill-opacity:1"
       id="path1015"
       sodipodi:cx="33.432892"
       sodipodi:cy="25.460972"
       sodipodi:rx="1.3037281"
       sodipodi:ry="1.1932427"
       d="m 34.73662,25.460972 a 1.3037281,1.1932427 0 1 1 -2.607456,0 1.3037281,1.1932427 0 1 1 2.607456,0 z"
       transform="matrix(1.3559322,0,0,1.3796296,-12.408075,-9.3563799)" />
    <path
       sodipodi:type="arc"
       style="fill:url(#linearGradient1075-8);fill-opacity:1"
       id="path1017"
       sodipodi:cx="33.101437"
       sodipodi:cy="25.217903"
       sodipodi:rx="0.70710677"
       sodipodi:ry="0.59662133"
       d="m 33.808543,25.217903 a 0.70710677,0.59662133 0 1 1 -1.414213,0 0.70710677,0.59662133 0 1 1 1.414213,0 z"
       transform="matrix(1.9915254,0,0,2.2464766,-32.96773,-30.895665)" />
    <path
       sodipodi:type="arc"
       style="fill:#1a1a1a;fill-opacity:1"
       id="path1015-0"
       sodipodi:cx="33.432892"
       sodipodi:cy="25.460972"
       sodipodi:rx="1.3037281"
       sodipodi:ry="1.1932427"
       d="m 34.73662,25.460972 a 1.3037281,1.1932427 0 1 1 -2.607456,0 1.3037281,1.1932427 0 1 1 2.607456,0 z"
       transform="matrix(0.97876101,0.08560361,-0.09130282,0.95002183,-4.5003667,5.6804567)" />
    <path
       sodipodi:type="arc"
       style="fill:url(#linearGradient1075-8-7);fill-opacity:1"
       id="path1017-4"
       sodipodi:cx="33.101437"
       sodipodi:cy="25.217903"
       sodipodi:rx="0.70710677"
       sodipodi:ry="0.59662133"
       d="m 33.808543,25.217903 a 0.70710677,0.59662133 0 1 1 -1.414213,0 0.70710677,0.59662133 0 1 1 1.414213,0 z"
       transform="matrix(1.4375553,0.12573029,-0.14867007,1.5469383,-17.915617,-10.449621)" />
  </g>
</svg>
